%TF.GenerationSoftware,KiCad,Pcbnew,10.0.5*%
%TF.CreationDate,2026-09-06T16:11:42+02:00*%
%TF.ProjectId,00_avo_vcm_mk3_protection,30305f61-766f-45f7-9663-6d5f6d6b335f,1*%
%TF.SameCoordinates,Original*%
%TF.FileFunction,Profile,NP*%
%FSLAX46Y46*%
G04 Gerber Fmt 4.6, Leading zero omitted, Abs format (unit mm)*
G04 Created by KiCad (PCBNEW 10.0.5) date 2026-09-06 16:11:42*
%MOMM*%
%LPD*%
G01*
G04 APERTURE LIST*
%ADD10C,0.150000*%
%ADD11C,0.300000*%
%ADD12C,0.400000*%
%TA.AperFunction,Profile*%
%ADD13C,0.050000*%
%TD*%
G04 APERTURE END LIST*
D10*
X10000000Y-10000000D02*
X287002200Y-10000000D01*
X287002200Y-200007200D01*
X10000000Y-200007200D01*
X10000000Y-10000000D01*
X12000000Y-12000000D02*
X285002200Y-12000000D01*
X285002200Y-198007200D01*
X12000000Y-198007200D01*
X12000000Y-12000000D01*
X60000000Y-12000000D02*
X60000000Y-10000000D01*
X110000000Y-12000000D02*
X110000000Y-10000000D01*
X160000000Y-12000000D02*
X160000000Y-10000000D01*
X210000000Y-12000000D02*
X210000000Y-10000000D01*
X260000000Y-12000000D02*
X260000000Y-10000000D01*
X36089160Y-11593604D02*
X35346303Y-11593604D01*
X35717731Y-11593604D02*
X35717731Y-10293604D01*
X35717731Y-10293604D02*
X35593922Y-10479319D01*
X35593922Y-10479319D02*
X35470112Y-10603128D01*
X35470112Y-10603128D02*
X35346303Y-10665033D01*
X85346303Y-10417414D02*
X85408207Y-10355509D01*
X85408207Y-10355509D02*
X85532017Y-10293604D01*
X85532017Y-10293604D02*
X85841541Y-10293604D01*
X85841541Y-10293604D02*
X85965350Y-10355509D01*
X85965350Y-10355509D02*
X86027255Y-10417414D01*
X86027255Y-10417414D02*
X86089160Y-10541223D01*
X86089160Y-10541223D02*
X86089160Y-10665033D01*
X86089160Y-10665033D02*
X86027255Y-10850747D01*
X86027255Y-10850747D02*
X85284398Y-11593604D01*
X85284398Y-11593604D02*
X86089160Y-11593604D01*
X135284398Y-10293604D02*
X136089160Y-10293604D01*
X136089160Y-10293604D02*
X135655826Y-10788842D01*
X135655826Y-10788842D02*
X135841541Y-10788842D01*
X135841541Y-10788842D02*
X135965350Y-10850747D01*
X135965350Y-10850747D02*
X136027255Y-10912652D01*
X136027255Y-10912652D02*
X136089160Y-11036461D01*
X136089160Y-11036461D02*
X136089160Y-11345985D01*
X136089160Y-11345985D02*
X136027255Y-11469795D01*
X136027255Y-11469795D02*
X135965350Y-11531700D01*
X135965350Y-11531700D02*
X135841541Y-11593604D01*
X135841541Y-11593604D02*
X135470112Y-11593604D01*
X135470112Y-11593604D02*
X135346303Y-11531700D01*
X135346303Y-11531700D02*
X135284398Y-11469795D01*
X185965350Y-10726938D02*
X185965350Y-11593604D01*
X185655826Y-10231700D02*
X185346303Y-11160271D01*
X185346303Y-11160271D02*
X186151064Y-11160271D01*
X236027255Y-10293604D02*
X235408207Y-10293604D01*
X235408207Y-10293604D02*
X235346303Y-10912652D01*
X235346303Y-10912652D02*
X235408207Y-10850747D01*
X235408207Y-10850747D02*
X235532017Y-10788842D01*
X235532017Y-10788842D02*
X235841541Y-10788842D01*
X235841541Y-10788842D02*
X235965350Y-10850747D01*
X235965350Y-10850747D02*
X236027255Y-10912652D01*
X236027255Y-10912652D02*
X236089160Y-11036461D01*
X236089160Y-11036461D02*
X236089160Y-11345985D01*
X236089160Y-11345985D02*
X236027255Y-11469795D01*
X236027255Y-11469795D02*
X235965350Y-11531700D01*
X235965350Y-11531700D02*
X235841541Y-11593604D01*
X235841541Y-11593604D02*
X235532017Y-11593604D01*
X235532017Y-11593604D02*
X235408207Y-11531700D01*
X235408207Y-11531700D02*
X235346303Y-11469795D01*
X285965350Y-10293604D02*
X285717731Y-10293604D01*
X285717731Y-10293604D02*
X285593922Y-10355509D01*
X285593922Y-10355509D02*
X285532017Y-10417414D01*
X285532017Y-10417414D02*
X285408207Y-10603128D01*
X285408207Y-10603128D02*
X285346303Y-10850747D01*
X285346303Y-10850747D02*
X285346303Y-11345985D01*
X285346303Y-11345985D02*
X285408207Y-11469795D01*
X285408207Y-11469795D02*
X285470112Y-11531700D01*
X285470112Y-11531700D02*
X285593922Y-11593604D01*
X285593922Y-11593604D02*
X285841541Y-11593604D01*
X285841541Y-11593604D02*
X285965350Y-11531700D01*
X285965350Y-11531700D02*
X286027255Y-11469795D01*
X286027255Y-11469795D02*
X286089160Y-11345985D01*
X286089160Y-11345985D02*
X286089160Y-11036461D01*
X286089160Y-11036461D02*
X286027255Y-10912652D01*
X286027255Y-10912652D02*
X285965350Y-10850747D01*
X285965350Y-10850747D02*
X285841541Y-10788842D01*
X285841541Y-10788842D02*
X285593922Y-10788842D01*
X285593922Y-10788842D02*
X285470112Y-10850747D01*
X285470112Y-10850747D02*
X285408207Y-10912652D01*
X285408207Y-10912652D02*
X285346303Y-11036461D01*
X60000000Y-198007200D02*
X60000000Y-200007200D01*
X110000000Y-198007200D02*
X110000000Y-200007200D01*
X160000000Y-198007200D02*
X160000000Y-200007200D01*
X210000000Y-198007200D02*
X210000000Y-200007200D01*
X260000000Y-198007200D02*
X260000000Y-200007200D01*
X36089160Y-199600804D02*
X35346303Y-199600804D01*
X35717731Y-199600804D02*
X35717731Y-198300804D01*
X35717731Y-198300804D02*
X35593922Y-198486519D01*
X35593922Y-198486519D02*
X35470112Y-198610328D01*
X35470112Y-198610328D02*
X35346303Y-198672233D01*
X85346303Y-198424614D02*
X85408207Y-198362709D01*
X85408207Y-198362709D02*
X85532017Y-198300804D01*
X85532017Y-198300804D02*
X85841541Y-198300804D01*
X85841541Y-198300804D02*
X85965350Y-198362709D01*
X85965350Y-198362709D02*
X86027255Y-198424614D01*
X86027255Y-198424614D02*
X86089160Y-198548423D01*
X86089160Y-198548423D02*
X86089160Y-198672233D01*
X86089160Y-198672233D02*
X86027255Y-198857947D01*
X86027255Y-198857947D02*
X85284398Y-199600804D01*
X85284398Y-199600804D02*
X86089160Y-199600804D01*
X135284398Y-198300804D02*
X136089160Y-198300804D01*
X136089160Y-198300804D02*
X135655826Y-198796042D01*
X135655826Y-198796042D02*
X135841541Y-198796042D01*
X135841541Y-198796042D02*
X135965350Y-198857947D01*
X135965350Y-198857947D02*
X136027255Y-198919852D01*
X136027255Y-198919852D02*
X136089160Y-199043661D01*
X136089160Y-199043661D02*
X136089160Y-199353185D01*
X136089160Y-199353185D02*
X136027255Y-199476995D01*
X136027255Y-199476995D02*
X135965350Y-199538900D01*
X135965350Y-199538900D02*
X135841541Y-199600804D01*
X135841541Y-199600804D02*
X135470112Y-199600804D01*
X135470112Y-199600804D02*
X135346303Y-199538900D01*
X135346303Y-199538900D02*
X135284398Y-199476995D01*
X185965350Y-198734138D02*
X185965350Y-199600804D01*
X185655826Y-198238900D02*
X185346303Y-199167471D01*
X185346303Y-199167471D02*
X186151064Y-199167471D01*
X236027255Y-198300804D02*
X235408207Y-198300804D01*
X235408207Y-198300804D02*
X235346303Y-198919852D01*
X235346303Y-198919852D02*
X235408207Y-198857947D01*
X235408207Y-198857947D02*
X235532017Y-198796042D01*
X235532017Y-198796042D02*
X235841541Y-198796042D01*
X235841541Y-198796042D02*
X235965350Y-198857947D01*
X235965350Y-198857947D02*
X236027255Y-198919852D01*
X236027255Y-198919852D02*
X236089160Y-199043661D01*
X236089160Y-199043661D02*
X236089160Y-199353185D01*
X236089160Y-199353185D02*
X236027255Y-199476995D01*
X236027255Y-199476995D02*
X235965350Y-199538900D01*
X235965350Y-199538900D02*
X235841541Y-199600804D01*
X235841541Y-199600804D02*
X235532017Y-199600804D01*
X235532017Y-199600804D02*
X235408207Y-199538900D01*
X235408207Y-199538900D02*
X235346303Y-199476995D01*
X285965350Y-198300804D02*
X285717731Y-198300804D01*
X285717731Y-198300804D02*
X285593922Y-198362709D01*
X285593922Y-198362709D02*
X285532017Y-198424614D01*
X285532017Y-198424614D02*
X285408207Y-198610328D01*
X285408207Y-198610328D02*
X285346303Y-198857947D01*
X285346303Y-198857947D02*
X285346303Y-199353185D01*
X285346303Y-199353185D02*
X285408207Y-199476995D01*
X285408207Y-199476995D02*
X285470112Y-199538900D01*
X285470112Y-199538900D02*
X285593922Y-199600804D01*
X285593922Y-199600804D02*
X285841541Y-199600804D01*
X285841541Y-199600804D02*
X285965350Y-199538900D01*
X285965350Y-199538900D02*
X286027255Y-199476995D01*
X286027255Y-199476995D02*
X286089160Y-199353185D01*
X286089160Y-199353185D02*
X286089160Y-199043661D01*
X286089160Y-199043661D02*
X286027255Y-198919852D01*
X286027255Y-198919852D02*
X285965350Y-198857947D01*
X285965350Y-198857947D02*
X285841541Y-198796042D01*
X285841541Y-198796042D02*
X285593922Y-198796042D01*
X285593922Y-198796042D02*
X285470112Y-198857947D01*
X285470112Y-198857947D02*
X285408207Y-198919852D01*
X285408207Y-198919852D02*
X285346303Y-199043661D01*
X10000000Y-60000000D02*
X12000000Y-60000000D01*
X10000000Y-110000000D02*
X12000000Y-110000000D01*
X10000000Y-160000000D02*
X12000000Y-160000000D01*
X10690476Y-35222176D02*
X11309523Y-35222176D01*
X10566666Y-35593604D02*
X10999999Y-34293604D01*
X10999999Y-34293604D02*
X11433333Y-35593604D01*
X11092857Y-84912652D02*
X11278571Y-84974557D01*
X11278571Y-84974557D02*
X11340476Y-85036461D01*
X11340476Y-85036461D02*
X11402380Y-85160271D01*
X11402380Y-85160271D02*
X11402380Y-85345985D01*
X11402380Y-85345985D02*
X11340476Y-85469795D01*
X11340476Y-85469795D02*
X11278571Y-85531700D01*
X11278571Y-85531700D02*
X11154761Y-85593604D01*
X11154761Y-85593604D02*
X10659523Y-85593604D01*
X10659523Y-85593604D02*
X10659523Y-84293604D01*
X10659523Y-84293604D02*
X11092857Y-84293604D01*
X11092857Y-84293604D02*
X11216666Y-84355509D01*
X11216666Y-84355509D02*
X11278571Y-84417414D01*
X11278571Y-84417414D02*
X11340476Y-84541223D01*
X11340476Y-84541223D02*
X11340476Y-84665033D01*
X11340476Y-84665033D02*
X11278571Y-84788842D01*
X11278571Y-84788842D02*
X11216666Y-84850747D01*
X11216666Y-84850747D02*
X11092857Y-84912652D01*
X11092857Y-84912652D02*
X10659523Y-84912652D01*
X11402380Y-135469795D02*
X11340476Y-135531700D01*
X11340476Y-135531700D02*
X11154761Y-135593604D01*
X11154761Y-135593604D02*
X11030952Y-135593604D01*
X11030952Y-135593604D02*
X10845238Y-135531700D01*
X10845238Y-135531700D02*
X10721428Y-135407890D01*
X10721428Y-135407890D02*
X10659523Y-135284080D01*
X10659523Y-135284080D02*
X10597619Y-135036461D01*
X10597619Y-135036461D02*
X10597619Y-134850747D01*
X10597619Y-134850747D02*
X10659523Y-134603128D01*
X10659523Y-134603128D02*
X10721428Y-134479319D01*
X10721428Y-134479319D02*
X10845238Y-134355509D01*
X10845238Y-134355509D02*
X11030952Y-134293604D01*
X11030952Y-134293604D02*
X11154761Y-134293604D01*
X11154761Y-134293604D02*
X11340476Y-134355509D01*
X11340476Y-134355509D02*
X11402380Y-134417414D01*
X10659523Y-185593604D02*
X10659523Y-184293604D01*
X10659523Y-184293604D02*
X10969047Y-184293604D01*
X10969047Y-184293604D02*
X11154761Y-184355509D01*
X11154761Y-184355509D02*
X11278571Y-184479319D01*
X11278571Y-184479319D02*
X11340476Y-184603128D01*
X11340476Y-184603128D02*
X11402380Y-184850747D01*
X11402380Y-184850747D02*
X11402380Y-185036461D01*
X11402380Y-185036461D02*
X11340476Y-185284080D01*
X11340476Y-185284080D02*
X11278571Y-185407890D01*
X11278571Y-185407890D02*
X11154761Y-185531700D01*
X11154761Y-185531700D02*
X10969047Y-185593604D01*
X10969047Y-185593604D02*
X10659523Y-185593604D01*
X287002200Y-60000000D02*
X285002200Y-60000000D01*
X287002200Y-110000000D02*
X285002200Y-110000000D01*
X287002200Y-160000000D02*
X285002200Y-160000000D01*
X285692676Y-35222176D02*
X286311723Y-35222176D01*
X285568866Y-35593604D02*
X286002199Y-34293604D01*
X286002199Y-34293604D02*
X286435533Y-35593604D01*
X286095057Y-84912652D02*
X286280771Y-84974557D01*
X286280771Y-84974557D02*
X286342676Y-85036461D01*
X286342676Y-85036461D02*
X286404580Y-85160271D01*
X286404580Y-85160271D02*
X286404580Y-85345985D01*
X286404580Y-85345985D02*
X286342676Y-85469795D01*
X286342676Y-85469795D02*
X286280771Y-85531700D01*
X286280771Y-85531700D02*
X286156961Y-85593604D01*
X286156961Y-85593604D02*
X285661723Y-85593604D01*
X285661723Y-85593604D02*
X285661723Y-84293604D01*
X285661723Y-84293604D02*
X286095057Y-84293604D01*
X286095057Y-84293604D02*
X286218866Y-84355509D01*
X286218866Y-84355509D02*
X286280771Y-84417414D01*
X286280771Y-84417414D02*
X286342676Y-84541223D01*
X286342676Y-84541223D02*
X286342676Y-84665033D01*
X286342676Y-84665033D02*
X286280771Y-84788842D01*
X286280771Y-84788842D02*
X286218866Y-84850747D01*
X286218866Y-84850747D02*
X286095057Y-84912652D01*
X286095057Y-84912652D02*
X285661723Y-84912652D01*
X286404580Y-135469795D02*
X286342676Y-135531700D01*
X286342676Y-135531700D02*
X286156961Y-135593604D01*
X286156961Y-135593604D02*
X286033152Y-135593604D01*
X286033152Y-135593604D02*
X285847438Y-135531700D01*
X285847438Y-135531700D02*
X285723628Y-135407890D01*
X285723628Y-135407890D02*
X285661723Y-135284080D01*
X285661723Y-135284080D02*
X285599819Y-135036461D01*
X285599819Y-135036461D02*
X285599819Y-134850747D01*
X285599819Y-134850747D02*
X285661723Y-134603128D01*
X285661723Y-134603128D02*
X285723628Y-134479319D01*
X285723628Y-134479319D02*
X285847438Y-134355509D01*
X285847438Y-134355509D02*
X286033152Y-134293604D01*
X286033152Y-134293604D02*
X286156961Y-134293604D01*
X286156961Y-134293604D02*
X286342676Y-134355509D01*
X286342676Y-134355509D02*
X286404580Y-134417414D01*
X285661723Y-185593604D02*
X285661723Y-184293604D01*
X285661723Y-184293604D02*
X285971247Y-184293604D01*
X285971247Y-184293604D02*
X286156961Y-184355509D01*
X286156961Y-184355509D02*
X286280771Y-184479319D01*
X286280771Y-184479319D02*
X286342676Y-184603128D01*
X286342676Y-184603128D02*
X286404580Y-184850747D01*
X286404580Y-184850747D02*
X286404580Y-185036461D01*
X286404580Y-185036461D02*
X286342676Y-185284080D01*
X286342676Y-185284080D02*
X286280771Y-185407890D01*
X286280771Y-185407890D02*
X286156961Y-185531700D01*
X286156961Y-185531700D02*
X285971247Y-185593604D01*
X285971247Y-185593604D02*
X285661723Y-185593604D01*
X200458026Y-193793328D02*
X200458026Y-192293328D01*
X200458026Y-192293328D02*
X200815169Y-192293328D01*
X200815169Y-192293328D02*
X201029455Y-192364757D01*
X201029455Y-192364757D02*
X201172312Y-192507614D01*
X201172312Y-192507614D02*
X201243741Y-192650471D01*
X201243741Y-192650471D02*
X201315169Y-192936185D01*
X201315169Y-192936185D02*
X201315169Y-193150471D01*
X201315169Y-193150471D02*
X201243741Y-193436185D01*
X201243741Y-193436185D02*
X201172312Y-193579042D01*
X201172312Y-193579042D02*
X201029455Y-193721900D01*
X201029455Y-193721900D02*
X200815169Y-193793328D01*
X200815169Y-193793328D02*
X200458026Y-193793328D01*
X202600884Y-193793328D02*
X202600884Y-193007614D01*
X202600884Y-193007614D02*
X202529455Y-192864757D01*
X202529455Y-192864757D02*
X202386598Y-192793328D01*
X202386598Y-192793328D02*
X202100884Y-192793328D01*
X202100884Y-192793328D02*
X201958026Y-192864757D01*
X202600884Y-193721900D02*
X202458026Y-193793328D01*
X202458026Y-193793328D02*
X202100884Y-193793328D01*
X202100884Y-193793328D02*
X201958026Y-193721900D01*
X201958026Y-193721900D02*
X201886598Y-193579042D01*
X201886598Y-193579042D02*
X201886598Y-193436185D01*
X201886598Y-193436185D02*
X201958026Y-193293328D01*
X201958026Y-193293328D02*
X202100884Y-193221900D01*
X202100884Y-193221900D02*
X202458026Y-193221900D01*
X202458026Y-193221900D02*
X202600884Y-193150471D01*
X203100884Y-192793328D02*
X203672312Y-192793328D01*
X203315169Y-192293328D02*
X203315169Y-193579042D01*
X203315169Y-193579042D02*
X203386598Y-193721900D01*
X203386598Y-193721900D02*
X203529455Y-193793328D01*
X203529455Y-193793328D02*
X203672312Y-193793328D01*
X204743741Y-193721900D02*
X204600884Y-193793328D01*
X204600884Y-193793328D02*
X204315170Y-193793328D01*
X204315170Y-193793328D02*
X204172312Y-193721900D01*
X204172312Y-193721900D02*
X204100884Y-193579042D01*
X204100884Y-193579042D02*
X204100884Y-193007614D01*
X204100884Y-193007614D02*
X204172312Y-192864757D01*
X204172312Y-192864757D02*
X204315170Y-192793328D01*
X204315170Y-192793328D02*
X204600884Y-192793328D01*
X204600884Y-192793328D02*
X204743741Y-192864757D01*
X204743741Y-192864757D02*
X204815170Y-193007614D01*
X204815170Y-193007614D02*
X204815170Y-193150471D01*
X204815170Y-193150471D02*
X204100884Y-193293328D01*
X205458026Y-193650471D02*
X205529455Y-193721900D01*
X205529455Y-193721900D02*
X205458026Y-193793328D01*
X205458026Y-193793328D02*
X205386598Y-193721900D01*
X205386598Y-193721900D02*
X205458026Y-193650471D01*
X205458026Y-193650471D02*
X205458026Y-193793328D01*
X205458026Y-192864757D02*
X205529455Y-192936185D01*
X205529455Y-192936185D02*
X205458026Y-193007614D01*
X205458026Y-193007614D02*
X205386598Y-192936185D01*
X205386598Y-192936185D02*
X205458026Y-192864757D01*
X205458026Y-192864757D02*
X205458026Y-193007614D01*
X207243741Y-192436185D02*
X207315169Y-192364757D01*
X207315169Y-192364757D02*
X207458027Y-192293328D01*
X207458027Y-192293328D02*
X207815169Y-192293328D01*
X207815169Y-192293328D02*
X207958027Y-192364757D01*
X207958027Y-192364757D02*
X208029455Y-192436185D01*
X208029455Y-192436185D02*
X208100884Y-192579042D01*
X208100884Y-192579042D02*
X208100884Y-192721900D01*
X208100884Y-192721900D02*
X208029455Y-192936185D01*
X208029455Y-192936185D02*
X207172312Y-193793328D01*
X207172312Y-193793328D02*
X208100884Y-193793328D01*
X209029455Y-192293328D02*
X209172312Y-192293328D01*
X209172312Y-192293328D02*
X209315169Y-192364757D01*
X209315169Y-192364757D02*
X209386598Y-192436185D01*
X209386598Y-192436185D02*
X209458026Y-192579042D01*
X209458026Y-192579042D02*
X209529455Y-192864757D01*
X209529455Y-192864757D02*
X209529455Y-193221900D01*
X209529455Y-193221900D02*
X209458026Y-193507614D01*
X209458026Y-193507614D02*
X209386598Y-193650471D01*
X209386598Y-193650471D02*
X209315169Y-193721900D01*
X209315169Y-193721900D02*
X209172312Y-193793328D01*
X209172312Y-193793328D02*
X209029455Y-193793328D01*
X209029455Y-193793328D02*
X208886598Y-193721900D01*
X208886598Y-193721900D02*
X208815169Y-193650471D01*
X208815169Y-193650471D02*
X208743740Y-193507614D01*
X208743740Y-193507614D02*
X208672312Y-193221900D01*
X208672312Y-193221900D02*
X208672312Y-192864757D01*
X208672312Y-192864757D02*
X208743740Y-192579042D01*
X208743740Y-192579042D02*
X208815169Y-192436185D01*
X208815169Y-192436185D02*
X208886598Y-192364757D01*
X208886598Y-192364757D02*
X209029455Y-192293328D01*
X210100883Y-192436185D02*
X210172311Y-192364757D01*
X210172311Y-192364757D02*
X210315169Y-192293328D01*
X210315169Y-192293328D02*
X210672311Y-192293328D01*
X210672311Y-192293328D02*
X210815169Y-192364757D01*
X210815169Y-192364757D02*
X210886597Y-192436185D01*
X210886597Y-192436185D02*
X210958026Y-192579042D01*
X210958026Y-192579042D02*
X210958026Y-192721900D01*
X210958026Y-192721900D02*
X210886597Y-192936185D01*
X210886597Y-192936185D02*
X210029454Y-193793328D01*
X210029454Y-193793328D02*
X210958026Y-193793328D01*
X212243740Y-192293328D02*
X211958025Y-192293328D01*
X211958025Y-192293328D02*
X211815168Y-192364757D01*
X211815168Y-192364757D02*
X211743740Y-192436185D01*
X211743740Y-192436185D02*
X211600882Y-192650471D01*
X211600882Y-192650471D02*
X211529454Y-192936185D01*
X211529454Y-192936185D02*
X211529454Y-193507614D01*
X211529454Y-193507614D02*
X211600882Y-193650471D01*
X211600882Y-193650471D02*
X211672311Y-193721900D01*
X211672311Y-193721900D02*
X211815168Y-193793328D01*
X211815168Y-193793328D02*
X212100882Y-193793328D01*
X212100882Y-193793328D02*
X212243740Y-193721900D01*
X212243740Y-193721900D02*
X212315168Y-193650471D01*
X212315168Y-193650471D02*
X212386597Y-193507614D01*
X212386597Y-193507614D02*
X212386597Y-193150471D01*
X212386597Y-193150471D02*
X212315168Y-193007614D01*
X212315168Y-193007614D02*
X212243740Y-192936185D01*
X212243740Y-192936185D02*
X212100882Y-192864757D01*
X212100882Y-192864757D02*
X211815168Y-192864757D01*
X211815168Y-192864757D02*
X211672311Y-192936185D01*
X211672311Y-192936185D02*
X211600882Y-193007614D01*
X211600882Y-193007614D02*
X211529454Y-193150471D01*
X213029453Y-193221900D02*
X214172311Y-193221900D01*
X215172311Y-192293328D02*
X215315168Y-192293328D01*
X215315168Y-192293328D02*
X215458025Y-192364757D01*
X215458025Y-192364757D02*
X215529454Y-192436185D01*
X215529454Y-192436185D02*
X215600882Y-192579042D01*
X215600882Y-192579042D02*
X215672311Y-192864757D01*
X215672311Y-192864757D02*
X215672311Y-193221900D01*
X215672311Y-193221900D02*
X215600882Y-193507614D01*
X215600882Y-193507614D02*
X215529454Y-193650471D01*
X215529454Y-193650471D02*
X215458025Y-193721900D01*
X215458025Y-193721900D02*
X215315168Y-193793328D01*
X215315168Y-193793328D02*
X215172311Y-193793328D01*
X215172311Y-193793328D02*
X215029454Y-193721900D01*
X215029454Y-193721900D02*
X214958025Y-193650471D01*
X214958025Y-193650471D02*
X214886596Y-193507614D01*
X214886596Y-193507614D02*
X214815168Y-193221900D01*
X214815168Y-193221900D02*
X214815168Y-192864757D01*
X214815168Y-192864757D02*
X214886596Y-192579042D01*
X214886596Y-192579042D02*
X214958025Y-192436185D01*
X214958025Y-192436185D02*
X215029454Y-192364757D01*
X215029454Y-192364757D02*
X215172311Y-192293328D01*
X216529453Y-192936185D02*
X216386596Y-192864757D01*
X216386596Y-192864757D02*
X216315167Y-192793328D01*
X216315167Y-192793328D02*
X216243739Y-192650471D01*
X216243739Y-192650471D02*
X216243739Y-192579042D01*
X216243739Y-192579042D02*
X216315167Y-192436185D01*
X216315167Y-192436185D02*
X216386596Y-192364757D01*
X216386596Y-192364757D02*
X216529453Y-192293328D01*
X216529453Y-192293328D02*
X216815167Y-192293328D01*
X216815167Y-192293328D02*
X216958025Y-192364757D01*
X216958025Y-192364757D02*
X217029453Y-192436185D01*
X217029453Y-192436185D02*
X217100882Y-192579042D01*
X217100882Y-192579042D02*
X217100882Y-192650471D01*
X217100882Y-192650471D02*
X217029453Y-192793328D01*
X217029453Y-192793328D02*
X216958025Y-192864757D01*
X216958025Y-192864757D02*
X216815167Y-192936185D01*
X216815167Y-192936185D02*
X216529453Y-192936185D01*
X216529453Y-192936185D02*
X216386596Y-193007614D01*
X216386596Y-193007614D02*
X216315167Y-193079042D01*
X216315167Y-193079042D02*
X216243739Y-193221900D01*
X216243739Y-193221900D02*
X216243739Y-193507614D01*
X216243739Y-193507614D02*
X216315167Y-193650471D01*
X216315167Y-193650471D02*
X216386596Y-193721900D01*
X216386596Y-193721900D02*
X216529453Y-193793328D01*
X216529453Y-193793328D02*
X216815167Y-193793328D01*
X216815167Y-193793328D02*
X216958025Y-193721900D01*
X216958025Y-193721900D02*
X217029453Y-193650471D01*
X217029453Y-193650471D02*
X217100882Y-193507614D01*
X217100882Y-193507614D02*
X217100882Y-193221900D01*
X217100882Y-193221900D02*
X217029453Y-193079042D01*
X217029453Y-193079042D02*
X216958025Y-193007614D01*
X216958025Y-193007614D02*
X216815167Y-192936185D01*
X217743738Y-193221900D02*
X218886596Y-193221900D01*
X220386596Y-193793328D02*
X219529453Y-193793328D01*
X219958024Y-193793328D02*
X219958024Y-192293328D01*
X219958024Y-192293328D02*
X219815167Y-192507614D01*
X219815167Y-192507614D02*
X219672310Y-192650471D01*
X219672310Y-192650471D02*
X219529453Y-192721900D01*
X221100881Y-193793328D02*
X221386595Y-193793328D01*
X221386595Y-193793328D02*
X221529452Y-193721900D01*
X221529452Y-193721900D02*
X221600881Y-193650471D01*
X221600881Y-193650471D02*
X221743738Y-193436185D01*
X221743738Y-193436185D02*
X221815167Y-193150471D01*
X221815167Y-193150471D02*
X221815167Y-192579042D01*
X221815167Y-192579042D02*
X221743738Y-192436185D01*
X221743738Y-192436185D02*
X221672310Y-192364757D01*
X221672310Y-192364757D02*
X221529452Y-192293328D01*
X221529452Y-192293328D02*
X221243738Y-192293328D01*
X221243738Y-192293328D02*
X221100881Y-192364757D01*
X221100881Y-192364757D02*
X221029452Y-192436185D01*
X221029452Y-192436185D02*
X220958024Y-192579042D01*
X220958024Y-192579042D02*
X220958024Y-192936185D01*
X220958024Y-192936185D02*
X221029452Y-193079042D01*
X221029452Y-193079042D02*
X221100881Y-193150471D01*
X221100881Y-193150471D02*
X221243738Y-193221900D01*
X221243738Y-193221900D02*
X221529452Y-193221900D01*
X221529452Y-193221900D02*
X221672310Y-193150471D01*
X221672310Y-193150471D02*
X221743738Y-193079042D01*
X221743738Y-193079042D02*
X221815167Y-192936185D01*
X177002200Y-194507200D02*
X285002200Y-194507200D01*
X178458026Y-196593328D02*
X178458026Y-195093328D01*
X179315169Y-196593328D02*
X178672312Y-195736185D01*
X179315169Y-195093328D02*
X178458026Y-195950471D01*
X179958026Y-196593328D02*
X179958026Y-195593328D01*
X179958026Y-195093328D02*
X179886598Y-195164757D01*
X179886598Y-195164757D02*
X179958026Y-195236185D01*
X179958026Y-195236185D02*
X180029455Y-195164757D01*
X180029455Y-195164757D02*
X179958026Y-195093328D01*
X179958026Y-195093328D02*
X179958026Y-195236185D01*
X181529455Y-196450471D02*
X181458027Y-196521900D01*
X181458027Y-196521900D02*
X181243741Y-196593328D01*
X181243741Y-196593328D02*
X181100884Y-196593328D01*
X181100884Y-196593328D02*
X180886598Y-196521900D01*
X180886598Y-196521900D02*
X180743741Y-196379042D01*
X180743741Y-196379042D02*
X180672312Y-196236185D01*
X180672312Y-196236185D02*
X180600884Y-195950471D01*
X180600884Y-195950471D02*
X180600884Y-195736185D01*
X180600884Y-195736185D02*
X180672312Y-195450471D01*
X180672312Y-195450471D02*
X180743741Y-195307614D01*
X180743741Y-195307614D02*
X180886598Y-195164757D01*
X180886598Y-195164757D02*
X181100884Y-195093328D01*
X181100884Y-195093328D02*
X181243741Y-195093328D01*
X181243741Y-195093328D02*
X181458027Y-195164757D01*
X181458027Y-195164757D02*
X181529455Y-195236185D01*
X182815170Y-196593328D02*
X182815170Y-195807614D01*
X182815170Y-195807614D02*
X182743741Y-195664757D01*
X182743741Y-195664757D02*
X182600884Y-195593328D01*
X182600884Y-195593328D02*
X182315170Y-195593328D01*
X182315170Y-195593328D02*
X182172312Y-195664757D01*
X182815170Y-196521900D02*
X182672312Y-196593328D01*
X182672312Y-196593328D02*
X182315170Y-196593328D01*
X182315170Y-196593328D02*
X182172312Y-196521900D01*
X182172312Y-196521900D02*
X182100884Y-196379042D01*
X182100884Y-196379042D02*
X182100884Y-196236185D01*
X182100884Y-196236185D02*
X182172312Y-196093328D01*
X182172312Y-196093328D02*
X182315170Y-196021900D01*
X182315170Y-196021900D02*
X182672312Y-196021900D01*
X182672312Y-196021900D02*
X182815170Y-195950471D01*
X184172313Y-196593328D02*
X184172313Y-195093328D01*
X184172313Y-196521900D02*
X184029455Y-196593328D01*
X184029455Y-196593328D02*
X183743741Y-196593328D01*
X183743741Y-196593328D02*
X183600884Y-196521900D01*
X183600884Y-196521900D02*
X183529455Y-196450471D01*
X183529455Y-196450471D02*
X183458027Y-196307614D01*
X183458027Y-196307614D02*
X183458027Y-195879042D01*
X183458027Y-195879042D02*
X183529455Y-195736185D01*
X183529455Y-195736185D02*
X183600884Y-195664757D01*
X183600884Y-195664757D02*
X183743741Y-195593328D01*
X183743741Y-195593328D02*
X184029455Y-195593328D01*
X184029455Y-195593328D02*
X184172313Y-195664757D01*
X186029455Y-195807614D02*
X186529455Y-195807614D01*
X186743741Y-196593328D02*
X186029455Y-196593328D01*
X186029455Y-196593328D02*
X186029455Y-195093328D01*
X186029455Y-195093328D02*
X186743741Y-195093328D01*
X187386598Y-196450471D02*
X187458027Y-196521900D01*
X187458027Y-196521900D02*
X187386598Y-196593328D01*
X187386598Y-196593328D02*
X187315170Y-196521900D01*
X187315170Y-196521900D02*
X187386598Y-196450471D01*
X187386598Y-196450471D02*
X187386598Y-196593328D01*
X188100884Y-196593328D02*
X188100884Y-195093328D01*
X188100884Y-195093328D02*
X188458027Y-195093328D01*
X188458027Y-195093328D02*
X188672313Y-195164757D01*
X188672313Y-195164757D02*
X188815170Y-195307614D01*
X188815170Y-195307614D02*
X188886599Y-195450471D01*
X188886599Y-195450471D02*
X188958027Y-195736185D01*
X188958027Y-195736185D02*
X188958027Y-195950471D01*
X188958027Y-195950471D02*
X188886599Y-196236185D01*
X188886599Y-196236185D02*
X188815170Y-196379042D01*
X188815170Y-196379042D02*
X188672313Y-196521900D01*
X188672313Y-196521900D02*
X188458027Y-196593328D01*
X188458027Y-196593328D02*
X188100884Y-196593328D01*
X189600884Y-196450471D02*
X189672313Y-196521900D01*
X189672313Y-196521900D02*
X189600884Y-196593328D01*
X189600884Y-196593328D02*
X189529456Y-196521900D01*
X189529456Y-196521900D02*
X189600884Y-196450471D01*
X189600884Y-196450471D02*
X189600884Y-196593328D01*
X190243742Y-196164757D02*
X190958028Y-196164757D01*
X190100885Y-196593328D02*
X190600885Y-195093328D01*
X190600885Y-195093328D02*
X191100885Y-196593328D01*
X191600884Y-196450471D02*
X191672313Y-196521900D01*
X191672313Y-196521900D02*
X191600884Y-196593328D01*
X191600884Y-196593328D02*
X191529456Y-196521900D01*
X191529456Y-196521900D02*
X191600884Y-196450471D01*
X191600884Y-196450471D02*
X191600884Y-196593328D01*
X194243742Y-196593328D02*
X193386599Y-196593328D01*
X193815170Y-196593328D02*
X193815170Y-195093328D01*
X193815170Y-195093328D02*
X193672313Y-195307614D01*
X193672313Y-195307614D02*
X193529456Y-195450471D01*
X193529456Y-195450471D02*
X193386599Y-195521900D01*
X195172313Y-195093328D02*
X195315170Y-195093328D01*
X195315170Y-195093328D02*
X195458027Y-195164757D01*
X195458027Y-195164757D02*
X195529456Y-195236185D01*
X195529456Y-195236185D02*
X195600884Y-195379042D01*
X195600884Y-195379042D02*
X195672313Y-195664757D01*
X195672313Y-195664757D02*
X195672313Y-196021900D01*
X195672313Y-196021900D02*
X195600884Y-196307614D01*
X195600884Y-196307614D02*
X195529456Y-196450471D01*
X195529456Y-196450471D02*
X195458027Y-196521900D01*
X195458027Y-196521900D02*
X195315170Y-196593328D01*
X195315170Y-196593328D02*
X195172313Y-196593328D01*
X195172313Y-196593328D02*
X195029456Y-196521900D01*
X195029456Y-196521900D02*
X194958027Y-196450471D01*
X194958027Y-196450471D02*
X194886598Y-196307614D01*
X194886598Y-196307614D02*
X194815170Y-196021900D01*
X194815170Y-196021900D02*
X194815170Y-195664757D01*
X194815170Y-195664757D02*
X194886598Y-195379042D01*
X194886598Y-195379042D02*
X194958027Y-195236185D01*
X194958027Y-195236185D02*
X195029456Y-195164757D01*
X195029456Y-195164757D02*
X195172313Y-195093328D01*
X196315169Y-196450471D02*
X196386598Y-196521900D01*
X196386598Y-196521900D02*
X196315169Y-196593328D01*
X196315169Y-196593328D02*
X196243741Y-196521900D01*
X196243741Y-196521900D02*
X196315169Y-196450471D01*
X196315169Y-196450471D02*
X196315169Y-196593328D01*
X197315170Y-195093328D02*
X197458027Y-195093328D01*
X197458027Y-195093328D02*
X197600884Y-195164757D01*
X197600884Y-195164757D02*
X197672313Y-195236185D01*
X197672313Y-195236185D02*
X197743741Y-195379042D01*
X197743741Y-195379042D02*
X197815170Y-195664757D01*
X197815170Y-195664757D02*
X197815170Y-196021900D01*
X197815170Y-196021900D02*
X197743741Y-196307614D01*
X197743741Y-196307614D02*
X197672313Y-196450471D01*
X197672313Y-196450471D02*
X197600884Y-196521900D01*
X197600884Y-196521900D02*
X197458027Y-196593328D01*
X197458027Y-196593328D02*
X197315170Y-196593328D01*
X197315170Y-196593328D02*
X197172313Y-196521900D01*
X197172313Y-196521900D02*
X197100884Y-196450471D01*
X197100884Y-196450471D02*
X197029455Y-196307614D01*
X197029455Y-196307614D02*
X196958027Y-196021900D01*
X196958027Y-196021900D02*
X196958027Y-195664757D01*
X196958027Y-195664757D02*
X197029455Y-195379042D01*
X197029455Y-195379042D02*
X197100884Y-195236185D01*
X197100884Y-195236185D02*
X197172313Y-195164757D01*
X197172313Y-195164757D02*
X197315170Y-195093328D01*
X198458026Y-196450471D02*
X198529455Y-196521900D01*
X198529455Y-196521900D02*
X198458026Y-196593328D01*
X198458026Y-196593328D02*
X198386598Y-196521900D01*
X198386598Y-196521900D02*
X198458026Y-196450471D01*
X198458026Y-196450471D02*
X198458026Y-196593328D01*
X199886598Y-195093328D02*
X199172312Y-195093328D01*
X199172312Y-195093328D02*
X199100884Y-195807614D01*
X199100884Y-195807614D02*
X199172312Y-195736185D01*
X199172312Y-195736185D02*
X199315170Y-195664757D01*
X199315170Y-195664757D02*
X199672312Y-195664757D01*
X199672312Y-195664757D02*
X199815170Y-195736185D01*
X199815170Y-195736185D02*
X199886598Y-195807614D01*
X199886598Y-195807614D02*
X199958027Y-195950471D01*
X199958027Y-195950471D02*
X199958027Y-196307614D01*
X199958027Y-196307614D02*
X199886598Y-196450471D01*
X199886598Y-196450471D02*
X199815170Y-196521900D01*
X199815170Y-196521900D02*
X199672312Y-196593328D01*
X199672312Y-196593328D02*
X199315170Y-196593328D01*
X199315170Y-196593328D02*
X199172312Y-196521900D01*
X199172312Y-196521900D02*
X199100884Y-196450471D01*
X177002200Y-191507200D02*
X285002200Y-191507200D01*
D11*
X264413853Y-193785528D02*
X263913853Y-193071242D01*
X263556710Y-193785528D02*
X263556710Y-192285528D01*
X263556710Y-192285528D02*
X264128139Y-192285528D01*
X264128139Y-192285528D02*
X264270996Y-192356957D01*
X264270996Y-192356957D02*
X264342425Y-192428385D01*
X264342425Y-192428385D02*
X264413853Y-192571242D01*
X264413853Y-192571242D02*
X264413853Y-192785528D01*
X264413853Y-192785528D02*
X264342425Y-192928385D01*
X264342425Y-192928385D02*
X264270996Y-192999814D01*
X264270996Y-192999814D02*
X264128139Y-193071242D01*
X264128139Y-193071242D02*
X263556710Y-193071242D01*
X265628139Y-193714100D02*
X265485282Y-193785528D01*
X265485282Y-193785528D02*
X265199568Y-193785528D01*
X265199568Y-193785528D02*
X265056710Y-193714100D01*
X265056710Y-193714100D02*
X264985282Y-193571242D01*
X264985282Y-193571242D02*
X264985282Y-192999814D01*
X264985282Y-192999814D02*
X265056710Y-192856957D01*
X265056710Y-192856957D02*
X265199568Y-192785528D01*
X265199568Y-192785528D02*
X265485282Y-192785528D01*
X265485282Y-192785528D02*
X265628139Y-192856957D01*
X265628139Y-192856957D02*
X265699568Y-192999814D01*
X265699568Y-192999814D02*
X265699568Y-193142671D01*
X265699568Y-193142671D02*
X264985282Y-193285528D01*
X266199567Y-192785528D02*
X266556710Y-193785528D01*
X266556710Y-193785528D02*
X266913853Y-192785528D01*
X267485281Y-193642671D02*
X267556710Y-193714100D01*
X267556710Y-193714100D02*
X267485281Y-193785528D01*
X267485281Y-193785528D02*
X267413853Y-193714100D01*
X267413853Y-193714100D02*
X267485281Y-193642671D01*
X267485281Y-193642671D02*
X267485281Y-193785528D01*
X267485281Y-192856957D02*
X267556710Y-192928385D01*
X267556710Y-192928385D02*
X267485281Y-192999814D01*
X267485281Y-192999814D02*
X267413853Y-192928385D01*
X267413853Y-192928385D02*
X267485281Y-192856957D01*
X267485281Y-192856957D02*
X267485281Y-192999814D01*
X270128139Y-193785528D02*
X269270996Y-193785528D01*
X269699567Y-193785528D02*
X269699567Y-192285528D01*
X269699567Y-192285528D02*
X269556710Y-192499814D01*
X269556710Y-192499814D02*
X269413853Y-192642671D01*
X269413853Y-192642671D02*
X269270996Y-192714100D01*
D10*
X178386598Y-193721900D02*
X178600884Y-193793328D01*
X178600884Y-193793328D02*
X178958026Y-193793328D01*
X178958026Y-193793328D02*
X179100884Y-193721900D01*
X179100884Y-193721900D02*
X179172312Y-193650471D01*
X179172312Y-193650471D02*
X179243741Y-193507614D01*
X179243741Y-193507614D02*
X179243741Y-193364757D01*
X179243741Y-193364757D02*
X179172312Y-193221900D01*
X179172312Y-193221900D02*
X179100884Y-193150471D01*
X179100884Y-193150471D02*
X178958026Y-193079042D01*
X178958026Y-193079042D02*
X178672312Y-193007614D01*
X178672312Y-193007614D02*
X178529455Y-192936185D01*
X178529455Y-192936185D02*
X178458026Y-192864757D01*
X178458026Y-192864757D02*
X178386598Y-192721900D01*
X178386598Y-192721900D02*
X178386598Y-192579042D01*
X178386598Y-192579042D02*
X178458026Y-192436185D01*
X178458026Y-192436185D02*
X178529455Y-192364757D01*
X178529455Y-192364757D02*
X178672312Y-192293328D01*
X178672312Y-192293328D02*
X179029455Y-192293328D01*
X179029455Y-192293328D02*
X179243741Y-192364757D01*
X179886597Y-193793328D02*
X179886597Y-192793328D01*
X179886597Y-192293328D02*
X179815169Y-192364757D01*
X179815169Y-192364757D02*
X179886597Y-192436185D01*
X179886597Y-192436185D02*
X179958026Y-192364757D01*
X179958026Y-192364757D02*
X179886597Y-192293328D01*
X179886597Y-192293328D02*
X179886597Y-192436185D01*
X180458026Y-192793328D02*
X181243741Y-192793328D01*
X181243741Y-192793328D02*
X180458026Y-193793328D01*
X180458026Y-193793328D02*
X181243741Y-193793328D01*
X182386598Y-193721900D02*
X182243741Y-193793328D01*
X182243741Y-193793328D02*
X181958027Y-193793328D01*
X181958027Y-193793328D02*
X181815169Y-193721900D01*
X181815169Y-193721900D02*
X181743741Y-193579042D01*
X181743741Y-193579042D02*
X181743741Y-193007614D01*
X181743741Y-193007614D02*
X181815169Y-192864757D01*
X181815169Y-192864757D02*
X181958027Y-192793328D01*
X181958027Y-192793328D02*
X182243741Y-192793328D01*
X182243741Y-192793328D02*
X182386598Y-192864757D01*
X182386598Y-192864757D02*
X182458027Y-193007614D01*
X182458027Y-193007614D02*
X182458027Y-193150471D01*
X182458027Y-193150471D02*
X181743741Y-193293328D01*
X183100883Y-193650471D02*
X183172312Y-193721900D01*
X183172312Y-193721900D02*
X183100883Y-193793328D01*
X183100883Y-193793328D02*
X183029455Y-193721900D01*
X183029455Y-193721900D02*
X183100883Y-193650471D01*
X183100883Y-193650471D02*
X183100883Y-193793328D01*
X183100883Y-192864757D02*
X183172312Y-192936185D01*
X183172312Y-192936185D02*
X183100883Y-193007614D01*
X183100883Y-193007614D02*
X183029455Y-192936185D01*
X183029455Y-192936185D02*
X183100883Y-192864757D01*
X183100883Y-192864757D02*
X183100883Y-193007614D01*
X184886598Y-193364757D02*
X185600884Y-193364757D01*
X184743741Y-193793328D02*
X185243741Y-192293328D01*
X185243741Y-192293328D02*
X185743741Y-193793328D01*
X186886598Y-192793328D02*
X186886598Y-193793328D01*
X186529455Y-192221900D02*
X186172312Y-193293328D01*
X186172312Y-193293328D02*
X187100883Y-193293328D01*
X263458026Y-196593328D02*
X263458026Y-195093328D01*
X264815170Y-196593328D02*
X264815170Y-195093328D01*
X264815170Y-196521900D02*
X264672312Y-196593328D01*
X264672312Y-196593328D02*
X264386598Y-196593328D01*
X264386598Y-196593328D02*
X264243741Y-196521900D01*
X264243741Y-196521900D02*
X264172312Y-196450471D01*
X264172312Y-196450471D02*
X264100884Y-196307614D01*
X264100884Y-196307614D02*
X264100884Y-195879042D01*
X264100884Y-195879042D02*
X264172312Y-195736185D01*
X264172312Y-195736185D02*
X264243741Y-195664757D01*
X264243741Y-195664757D02*
X264386598Y-195593328D01*
X264386598Y-195593328D02*
X264672312Y-195593328D01*
X264672312Y-195593328D02*
X264815170Y-195664757D01*
X265529455Y-196450471D02*
X265600884Y-196521900D01*
X265600884Y-196521900D02*
X265529455Y-196593328D01*
X265529455Y-196593328D02*
X265458027Y-196521900D01*
X265458027Y-196521900D02*
X265529455Y-196450471D01*
X265529455Y-196450471D02*
X265529455Y-196593328D01*
X265529455Y-195664757D02*
X265600884Y-195736185D01*
X265600884Y-195736185D02*
X265529455Y-195807614D01*
X265529455Y-195807614D02*
X265458027Y-195736185D01*
X265458027Y-195736185D02*
X265529455Y-195664757D01*
X265529455Y-195664757D02*
X265529455Y-195807614D01*
X267458027Y-196593328D02*
X267743741Y-196593328D01*
X267743741Y-196593328D02*
X267886598Y-196521900D01*
X267886598Y-196521900D02*
X267958027Y-196450471D01*
X267958027Y-196450471D02*
X268100884Y-196236185D01*
X268100884Y-196236185D02*
X268172313Y-195950471D01*
X268172313Y-195950471D02*
X268172313Y-195379042D01*
X268172313Y-195379042D02*
X268100884Y-195236185D01*
X268100884Y-195236185D02*
X268029456Y-195164757D01*
X268029456Y-195164757D02*
X267886598Y-195093328D01*
X267886598Y-195093328D02*
X267600884Y-195093328D01*
X267600884Y-195093328D02*
X267458027Y-195164757D01*
X267458027Y-195164757D02*
X267386598Y-195236185D01*
X267386598Y-195236185D02*
X267315170Y-195379042D01*
X267315170Y-195379042D02*
X267315170Y-195736185D01*
X267315170Y-195736185D02*
X267386598Y-195879042D01*
X267386598Y-195879042D02*
X267458027Y-195950471D01*
X267458027Y-195950471D02*
X267600884Y-196021900D01*
X267600884Y-196021900D02*
X267886598Y-196021900D01*
X267886598Y-196021900D02*
X268029456Y-195950471D01*
X268029456Y-195950471D02*
X268100884Y-195879042D01*
X268100884Y-195879042D02*
X268172313Y-195736185D01*
X269886598Y-195021900D02*
X268600884Y-196950471D01*
X270458027Y-196593328D02*
X270743741Y-196593328D01*
X270743741Y-196593328D02*
X270886598Y-196521900D01*
X270886598Y-196521900D02*
X270958027Y-196450471D01*
X270958027Y-196450471D02*
X271100884Y-196236185D01*
X271100884Y-196236185D02*
X271172313Y-195950471D01*
X271172313Y-195950471D02*
X271172313Y-195379042D01*
X271172313Y-195379042D02*
X271100884Y-195236185D01*
X271100884Y-195236185D02*
X271029456Y-195164757D01*
X271029456Y-195164757D02*
X270886598Y-195093328D01*
X270886598Y-195093328D02*
X270600884Y-195093328D01*
X270600884Y-195093328D02*
X270458027Y-195164757D01*
X270458027Y-195164757D02*
X270386598Y-195236185D01*
X270386598Y-195236185D02*
X270315170Y-195379042D01*
X270315170Y-195379042D02*
X270315170Y-195736185D01*
X270315170Y-195736185D02*
X270386598Y-195879042D01*
X270386598Y-195879042D02*
X270458027Y-195950471D01*
X270458027Y-195950471D02*
X270600884Y-196021900D01*
X270600884Y-196021900D02*
X270886598Y-196021900D01*
X270886598Y-196021900D02*
X271029456Y-195950471D01*
X271029456Y-195950471D02*
X271100884Y-195879042D01*
X271100884Y-195879042D02*
X271172313Y-195736185D01*
X177002200Y-185507000D02*
X285002200Y-185507000D01*
D12*
X178693928Y-182461438D02*
X179836785Y-182461438D01*
X179015357Y-184461438D02*
X179265357Y-182461438D01*
X180253452Y-184461438D02*
X180420119Y-183128104D01*
X180503452Y-182461438D02*
X180396309Y-182556676D01*
X180396309Y-182556676D02*
X180479643Y-182651914D01*
X180479643Y-182651914D02*
X180586786Y-182556676D01*
X180586786Y-182556676D02*
X180503452Y-182461438D01*
X180503452Y-182461438D02*
X180479643Y-182651914D01*
X181086786Y-183128104D02*
X181848690Y-183128104D01*
X181455833Y-182461438D02*
X181241548Y-184175723D01*
X181241548Y-184175723D02*
X181312976Y-184366200D01*
X181312976Y-184366200D02*
X181491548Y-184461438D01*
X181491548Y-184461438D02*
X181682024Y-184461438D01*
X182634405Y-184461438D02*
X182455833Y-184366200D01*
X182455833Y-184366200D02*
X182384405Y-184175723D01*
X182384405Y-184175723D02*
X182598690Y-182461438D01*
X184170119Y-184366200D02*
X183967738Y-184461438D01*
X183967738Y-184461438D02*
X183586785Y-184461438D01*
X183586785Y-184461438D02*
X183408214Y-184366200D01*
X183408214Y-184366200D02*
X183336785Y-184175723D01*
X183336785Y-184175723D02*
X183432024Y-183413819D01*
X183432024Y-183413819D02*
X183551071Y-183223342D01*
X183551071Y-183223342D02*
X183753452Y-183128104D01*
X183753452Y-183128104D02*
X184134404Y-183128104D01*
X184134404Y-183128104D02*
X184312976Y-183223342D01*
X184312976Y-183223342D02*
X184384404Y-183413819D01*
X184384404Y-183413819D02*
X184360595Y-183604295D01*
X184360595Y-183604295D02*
X183384404Y-183794771D01*
X185134405Y-184270961D02*
X185217738Y-184366200D01*
X185217738Y-184366200D02*
X185110595Y-184461438D01*
X185110595Y-184461438D02*
X185027262Y-184366200D01*
X185027262Y-184366200D02*
X185134405Y-184270961D01*
X185134405Y-184270961D02*
X185110595Y-184461438D01*
X185265357Y-183223342D02*
X185348690Y-183318580D01*
X185348690Y-183318580D02*
X185241548Y-183413819D01*
X185241548Y-183413819D02*
X185158214Y-183318580D01*
X185158214Y-183318580D02*
X185265357Y-183223342D01*
X185265357Y-183223342D02*
X185241548Y-183413819D01*
X187562977Y-183890009D02*
X188515358Y-183890009D01*
X187301072Y-184461438D02*
X188217739Y-182461438D01*
X188217739Y-182461438D02*
X188634405Y-184461438D01*
X189265358Y-182461438D02*
X189682025Y-184461438D01*
X189682025Y-184461438D02*
X190598691Y-182461438D01*
X191646311Y-182461438D02*
X192027263Y-182461438D01*
X192027263Y-182461438D02*
X192205834Y-182556676D01*
X192205834Y-182556676D02*
X192372501Y-182747152D01*
X192372501Y-182747152D02*
X192420120Y-183128104D01*
X192420120Y-183128104D02*
X192336787Y-183794771D01*
X192336787Y-183794771D02*
X192193930Y-184175723D01*
X192193930Y-184175723D02*
X191979644Y-184366200D01*
X191979644Y-184366200D02*
X191777263Y-184461438D01*
X191777263Y-184461438D02*
X191396311Y-184461438D01*
X191396311Y-184461438D02*
X191217739Y-184366200D01*
X191217739Y-184366200D02*
X191051073Y-184175723D01*
X191051073Y-184175723D02*
X191003453Y-183794771D01*
X191003453Y-183794771D02*
X191086787Y-183128104D01*
X191086787Y-183128104D02*
X191229644Y-182747152D01*
X191229644Y-182747152D02*
X191443930Y-182556676D01*
X191443930Y-182556676D02*
X191646311Y-182461438D01*
X194598692Y-182461438D02*
X195015359Y-184461438D01*
X195015359Y-184461438D02*
X195932025Y-182461438D01*
X197515359Y-184270961D02*
X197408216Y-184366200D01*
X197408216Y-184366200D02*
X197110597Y-184461438D01*
X197110597Y-184461438D02*
X196920121Y-184461438D01*
X196920121Y-184461438D02*
X196646311Y-184366200D01*
X196646311Y-184366200D02*
X196479645Y-184175723D01*
X196479645Y-184175723D02*
X196408216Y-183985247D01*
X196408216Y-183985247D02*
X196360597Y-183604295D01*
X196360597Y-183604295D02*
X196396311Y-183318580D01*
X196396311Y-183318580D02*
X196539168Y-182937628D01*
X196539168Y-182937628D02*
X196658216Y-182747152D01*
X196658216Y-182747152D02*
X196872502Y-182556676D01*
X196872502Y-182556676D02*
X197170121Y-182461438D01*
X197170121Y-182461438D02*
X197360597Y-182461438D01*
X197360597Y-182461438D02*
X197634407Y-182556676D01*
X197634407Y-182556676D02*
X197717740Y-182651914D01*
X198348692Y-184461438D02*
X198598692Y-182461438D01*
X198598692Y-182461438D02*
X199086787Y-183890009D01*
X199086787Y-183890009D02*
X199932026Y-182461438D01*
X199932026Y-182461438D02*
X199682026Y-184461438D01*
X202158216Y-184461438D02*
X202408216Y-182461438D01*
X202408216Y-182461438D02*
X202896311Y-183890009D01*
X202896311Y-183890009D02*
X203741550Y-182461438D01*
X203741550Y-182461438D02*
X203491550Y-184461438D01*
X204443930Y-184461438D02*
X204693930Y-182461438D01*
X205586787Y-184461438D02*
X204872502Y-183318580D01*
X205836787Y-182461438D02*
X204551073Y-183604295D01*
X207967740Y-184461438D02*
X208217740Y-182461438D01*
X208920121Y-184461438D02*
X209170121Y-182461438D01*
X209872502Y-184461438D02*
X210122502Y-182461438D01*
X212348693Y-184461438D02*
X212598693Y-182461438D01*
X212598693Y-182461438D02*
X213086788Y-183890009D01*
X213086788Y-183890009D02*
X213932027Y-182461438D01*
X213932027Y-182461438D02*
X213682027Y-184461438D01*
X215408217Y-184366200D02*
X215205836Y-184461438D01*
X215205836Y-184461438D02*
X214824883Y-184461438D01*
X214824883Y-184461438D02*
X214646312Y-184366200D01*
X214646312Y-184366200D02*
X214574883Y-184175723D01*
X214574883Y-184175723D02*
X214670122Y-183413819D01*
X214670122Y-183413819D02*
X214789169Y-183223342D01*
X214789169Y-183223342D02*
X214991550Y-183128104D01*
X214991550Y-183128104D02*
X215372502Y-183128104D01*
X215372502Y-183128104D02*
X215551074Y-183223342D01*
X215551074Y-183223342D02*
X215622502Y-183413819D01*
X215622502Y-183413819D02*
X215598693Y-183604295D01*
X215598693Y-183604295D02*
X214622502Y-183794771D01*
X216229646Y-183128104D02*
X216991550Y-183128104D01*
X216598693Y-182461438D02*
X216384408Y-184175723D01*
X216384408Y-184175723D02*
X216455836Y-184366200D01*
X216455836Y-184366200D02*
X216634408Y-184461438D01*
X216634408Y-184461438D02*
X216824884Y-184461438D01*
X218265360Y-184366200D02*
X218062979Y-184461438D01*
X218062979Y-184461438D02*
X217682026Y-184461438D01*
X217682026Y-184461438D02*
X217503455Y-184366200D01*
X217503455Y-184366200D02*
X217432026Y-184175723D01*
X217432026Y-184175723D02*
X217527265Y-183413819D01*
X217527265Y-183413819D02*
X217646312Y-183223342D01*
X217646312Y-183223342D02*
X217848693Y-183128104D01*
X217848693Y-183128104D02*
X218229645Y-183128104D01*
X218229645Y-183128104D02*
X218408217Y-183223342D01*
X218408217Y-183223342D02*
X218479645Y-183413819D01*
X218479645Y-183413819D02*
X218455836Y-183604295D01*
X218455836Y-183604295D02*
X217479645Y-183794771D01*
X219205836Y-184461438D02*
X219372503Y-183128104D01*
X219324884Y-183509057D02*
X219443931Y-183318580D01*
X219443931Y-183318580D02*
X219551074Y-183223342D01*
X219551074Y-183223342D02*
X219753455Y-183128104D01*
X219753455Y-183128104D02*
X219943931Y-183128104D01*
X221967741Y-184461438D02*
X222217741Y-182461438D01*
X222217741Y-182461438D02*
X222979646Y-182461438D01*
X222979646Y-182461438D02*
X223158217Y-182556676D01*
X223158217Y-182556676D02*
X223241551Y-182651914D01*
X223241551Y-182651914D02*
X223312979Y-182842390D01*
X223312979Y-182842390D02*
X223277265Y-183128104D01*
X223277265Y-183128104D02*
X223158217Y-183318580D01*
X223158217Y-183318580D02*
X223051075Y-183413819D01*
X223051075Y-183413819D02*
X222848694Y-183509057D01*
X222848694Y-183509057D02*
X222086789Y-183509057D01*
X223967741Y-184461438D02*
X224134408Y-183128104D01*
X224086789Y-183509057D02*
X224205836Y-183318580D01*
X224205836Y-183318580D02*
X224312979Y-183223342D01*
X224312979Y-183223342D02*
X224515360Y-183128104D01*
X224515360Y-183128104D02*
X224705836Y-183128104D01*
X225491551Y-184461438D02*
X225312979Y-184366200D01*
X225312979Y-184366200D02*
X225229646Y-184270961D01*
X225229646Y-184270961D02*
X225158217Y-184080485D01*
X225158217Y-184080485D02*
X225229646Y-183509057D01*
X225229646Y-183509057D02*
X225348693Y-183318580D01*
X225348693Y-183318580D02*
X225455836Y-183223342D01*
X225455836Y-183223342D02*
X225658217Y-183128104D01*
X225658217Y-183128104D02*
X225943931Y-183128104D01*
X225943931Y-183128104D02*
X226122503Y-183223342D01*
X226122503Y-183223342D02*
X226205836Y-183318580D01*
X226205836Y-183318580D02*
X226277265Y-183509057D01*
X226277265Y-183509057D02*
X226205836Y-184080485D01*
X226205836Y-184080485D02*
X226086789Y-184270961D01*
X226086789Y-184270961D02*
X225979646Y-184366200D01*
X225979646Y-184366200D02*
X225777265Y-184461438D01*
X225777265Y-184461438D02*
X225491551Y-184461438D01*
X226896313Y-183128104D02*
X227658217Y-183128104D01*
X227265360Y-182461438D02*
X227051075Y-184175723D01*
X227051075Y-184175723D02*
X227122503Y-184366200D01*
X227122503Y-184366200D02*
X227301075Y-184461438D01*
X227301075Y-184461438D02*
X227491551Y-184461438D01*
X228932027Y-184366200D02*
X228729646Y-184461438D01*
X228729646Y-184461438D02*
X228348693Y-184461438D01*
X228348693Y-184461438D02*
X228170122Y-184366200D01*
X228170122Y-184366200D02*
X228098693Y-184175723D01*
X228098693Y-184175723D02*
X228193932Y-183413819D01*
X228193932Y-183413819D02*
X228312979Y-183223342D01*
X228312979Y-183223342D02*
X228515360Y-183128104D01*
X228515360Y-183128104D02*
X228896312Y-183128104D01*
X228896312Y-183128104D02*
X229074884Y-183223342D01*
X229074884Y-183223342D02*
X229146312Y-183413819D01*
X229146312Y-183413819D02*
X229122503Y-183604295D01*
X229122503Y-183604295D02*
X228146312Y-183794771D01*
X230741551Y-184366200D02*
X230539170Y-184461438D01*
X230539170Y-184461438D02*
X230158218Y-184461438D01*
X230158218Y-184461438D02*
X229979646Y-184366200D01*
X229979646Y-184366200D02*
X229896313Y-184270961D01*
X229896313Y-184270961D02*
X229824884Y-184080485D01*
X229824884Y-184080485D02*
X229896313Y-183509057D01*
X229896313Y-183509057D02*
X230015360Y-183318580D01*
X230015360Y-183318580D02*
X230122503Y-183223342D01*
X230122503Y-183223342D02*
X230324884Y-183128104D01*
X230324884Y-183128104D02*
X230705837Y-183128104D01*
X230705837Y-183128104D02*
X230884408Y-183223342D01*
X231467742Y-183128104D02*
X232229646Y-183128104D01*
X231836789Y-182461438D02*
X231622504Y-184175723D01*
X231622504Y-184175723D02*
X231693932Y-184366200D01*
X231693932Y-184366200D02*
X231872504Y-184461438D01*
X231872504Y-184461438D02*
X232062980Y-184461438D01*
X232729646Y-184461438D02*
X232896313Y-183128104D01*
X232979646Y-182461438D02*
X232872503Y-182556676D01*
X232872503Y-182556676D02*
X232955837Y-182651914D01*
X232955837Y-182651914D02*
X233062980Y-182556676D01*
X233062980Y-182556676D02*
X232979646Y-182461438D01*
X232979646Y-182461438D02*
X232955837Y-182651914D01*
X233967742Y-184461438D02*
X233789170Y-184366200D01*
X233789170Y-184366200D02*
X233705837Y-184270961D01*
X233705837Y-184270961D02*
X233634408Y-184080485D01*
X233634408Y-184080485D02*
X233705837Y-183509057D01*
X233705837Y-183509057D02*
X233824884Y-183318580D01*
X233824884Y-183318580D02*
X233932027Y-183223342D01*
X233932027Y-183223342D02*
X234134408Y-183128104D01*
X234134408Y-183128104D02*
X234420122Y-183128104D01*
X234420122Y-183128104D02*
X234598694Y-183223342D01*
X234598694Y-183223342D02*
X234682027Y-183318580D01*
X234682027Y-183318580D02*
X234753456Y-183509057D01*
X234753456Y-183509057D02*
X234682027Y-184080485D01*
X234682027Y-184080485D02*
X234562980Y-184270961D01*
X234562980Y-184270961D02*
X234455837Y-184366200D01*
X234455837Y-184366200D02*
X234253456Y-184461438D01*
X234253456Y-184461438D02*
X233967742Y-184461438D01*
X235658218Y-183128104D02*
X235491551Y-184461438D01*
X235634408Y-183318580D02*
X235741551Y-183223342D01*
X235741551Y-183223342D02*
X235943932Y-183128104D01*
X235943932Y-183128104D02*
X236229646Y-183128104D01*
X236229646Y-183128104D02*
X236408218Y-183223342D01*
X236408218Y-183223342D02*
X236479646Y-183413819D01*
X236479646Y-183413819D02*
X236348694Y-184461438D01*
D10*
X178958026Y-189857414D02*
X178458026Y-189857414D01*
X178458026Y-190643128D02*
X178458026Y-189143128D01*
X178458026Y-189143128D02*
X179172312Y-189143128D01*
X179743740Y-190643128D02*
X179743740Y-189643128D01*
X179743740Y-189143128D02*
X179672312Y-189214557D01*
X179672312Y-189214557D02*
X179743740Y-189285985D01*
X179743740Y-189285985D02*
X179815169Y-189214557D01*
X179815169Y-189214557D02*
X179743740Y-189143128D01*
X179743740Y-189143128D02*
X179743740Y-189285985D01*
X180672312Y-190643128D02*
X180529455Y-190571700D01*
X180529455Y-190571700D02*
X180458026Y-190428842D01*
X180458026Y-190428842D02*
X180458026Y-189143128D01*
X181815169Y-190571700D02*
X181672312Y-190643128D01*
X181672312Y-190643128D02*
X181386598Y-190643128D01*
X181386598Y-190643128D02*
X181243740Y-190571700D01*
X181243740Y-190571700D02*
X181172312Y-190428842D01*
X181172312Y-190428842D02*
X181172312Y-189857414D01*
X181172312Y-189857414D02*
X181243740Y-189714557D01*
X181243740Y-189714557D02*
X181386598Y-189643128D01*
X181386598Y-189643128D02*
X181672312Y-189643128D01*
X181672312Y-189643128D02*
X181815169Y-189714557D01*
X181815169Y-189714557D02*
X181886598Y-189857414D01*
X181886598Y-189857414D02*
X181886598Y-190000271D01*
X181886598Y-190000271D02*
X181172312Y-190143128D01*
X182529454Y-190500271D02*
X182600883Y-190571700D01*
X182600883Y-190571700D02*
X182529454Y-190643128D01*
X182529454Y-190643128D02*
X182458026Y-190571700D01*
X182458026Y-190571700D02*
X182529454Y-190500271D01*
X182529454Y-190500271D02*
X182529454Y-190643128D01*
X182529454Y-189714557D02*
X182600883Y-189785985D01*
X182600883Y-189785985D02*
X182529454Y-189857414D01*
X182529454Y-189857414D02*
X182458026Y-189785985D01*
X182458026Y-189785985D02*
X182529454Y-189714557D01*
X182529454Y-189714557D02*
X182529454Y-189857414D01*
X184672312Y-189143128D02*
X184815169Y-189143128D01*
X184815169Y-189143128D02*
X184958026Y-189214557D01*
X184958026Y-189214557D02*
X185029455Y-189285985D01*
X185029455Y-189285985D02*
X185100883Y-189428842D01*
X185100883Y-189428842D02*
X185172312Y-189714557D01*
X185172312Y-189714557D02*
X185172312Y-190071700D01*
X185172312Y-190071700D02*
X185100883Y-190357414D01*
X185100883Y-190357414D02*
X185029455Y-190500271D01*
X185029455Y-190500271D02*
X184958026Y-190571700D01*
X184958026Y-190571700D02*
X184815169Y-190643128D01*
X184815169Y-190643128D02*
X184672312Y-190643128D01*
X184672312Y-190643128D02*
X184529455Y-190571700D01*
X184529455Y-190571700D02*
X184458026Y-190500271D01*
X184458026Y-190500271D02*
X184386597Y-190357414D01*
X184386597Y-190357414D02*
X184315169Y-190071700D01*
X184315169Y-190071700D02*
X184315169Y-189714557D01*
X184315169Y-189714557D02*
X184386597Y-189428842D01*
X184386597Y-189428842D02*
X184458026Y-189285985D01*
X184458026Y-189285985D02*
X184529455Y-189214557D01*
X184529455Y-189214557D02*
X184672312Y-189143128D01*
X186100883Y-189143128D02*
X186243740Y-189143128D01*
X186243740Y-189143128D02*
X186386597Y-189214557D01*
X186386597Y-189214557D02*
X186458026Y-189285985D01*
X186458026Y-189285985D02*
X186529454Y-189428842D01*
X186529454Y-189428842D02*
X186600883Y-189714557D01*
X186600883Y-189714557D02*
X186600883Y-190071700D01*
X186600883Y-190071700D02*
X186529454Y-190357414D01*
X186529454Y-190357414D02*
X186458026Y-190500271D01*
X186458026Y-190500271D02*
X186386597Y-190571700D01*
X186386597Y-190571700D02*
X186243740Y-190643128D01*
X186243740Y-190643128D02*
X186100883Y-190643128D01*
X186100883Y-190643128D02*
X185958026Y-190571700D01*
X185958026Y-190571700D02*
X185886597Y-190500271D01*
X185886597Y-190500271D02*
X185815168Y-190357414D01*
X185815168Y-190357414D02*
X185743740Y-190071700D01*
X185743740Y-190071700D02*
X185743740Y-189714557D01*
X185743740Y-189714557D02*
X185815168Y-189428842D01*
X185815168Y-189428842D02*
X185886597Y-189285985D01*
X185886597Y-189285985D02*
X185958026Y-189214557D01*
X185958026Y-189214557D02*
X186100883Y-189143128D01*
X186886597Y-190785985D02*
X188029454Y-190785985D01*
X189029454Y-190643128D02*
X189029454Y-189857414D01*
X189029454Y-189857414D02*
X188958025Y-189714557D01*
X188958025Y-189714557D02*
X188815168Y-189643128D01*
X188815168Y-189643128D02*
X188529454Y-189643128D01*
X188529454Y-189643128D02*
X188386596Y-189714557D01*
X189029454Y-190571700D02*
X188886596Y-190643128D01*
X188886596Y-190643128D02*
X188529454Y-190643128D01*
X188529454Y-190643128D02*
X188386596Y-190571700D01*
X188386596Y-190571700D02*
X188315168Y-190428842D01*
X188315168Y-190428842D02*
X188315168Y-190285985D01*
X188315168Y-190285985D02*
X188386596Y-190143128D01*
X188386596Y-190143128D02*
X188529454Y-190071700D01*
X188529454Y-190071700D02*
X188886596Y-190071700D01*
X188886596Y-190071700D02*
X189029454Y-190000271D01*
X189600882Y-189643128D02*
X189958025Y-190643128D01*
X189958025Y-190643128D02*
X190315168Y-189643128D01*
X191100882Y-190643128D02*
X190958025Y-190571700D01*
X190958025Y-190571700D02*
X190886596Y-190500271D01*
X190886596Y-190500271D02*
X190815168Y-190357414D01*
X190815168Y-190357414D02*
X190815168Y-189928842D01*
X190815168Y-189928842D02*
X190886596Y-189785985D01*
X190886596Y-189785985D02*
X190958025Y-189714557D01*
X190958025Y-189714557D02*
X191100882Y-189643128D01*
X191100882Y-189643128D02*
X191315168Y-189643128D01*
X191315168Y-189643128D02*
X191458025Y-189714557D01*
X191458025Y-189714557D02*
X191529454Y-189785985D01*
X191529454Y-189785985D02*
X191600882Y-189928842D01*
X191600882Y-189928842D02*
X191600882Y-190357414D01*
X191600882Y-190357414D02*
X191529454Y-190500271D01*
X191529454Y-190500271D02*
X191458025Y-190571700D01*
X191458025Y-190571700D02*
X191315168Y-190643128D01*
X191315168Y-190643128D02*
X191100882Y-190643128D01*
X191886597Y-190785985D02*
X193029454Y-190785985D01*
X193243739Y-189643128D02*
X193600882Y-190643128D01*
X193600882Y-190643128D02*
X193958025Y-189643128D01*
X195172311Y-190571700D02*
X195029453Y-190643128D01*
X195029453Y-190643128D02*
X194743739Y-190643128D01*
X194743739Y-190643128D02*
X194600882Y-190571700D01*
X194600882Y-190571700D02*
X194529453Y-190500271D01*
X194529453Y-190500271D02*
X194458025Y-190357414D01*
X194458025Y-190357414D02*
X194458025Y-189928842D01*
X194458025Y-189928842D02*
X194529453Y-189785985D01*
X194529453Y-189785985D02*
X194600882Y-189714557D01*
X194600882Y-189714557D02*
X194743739Y-189643128D01*
X194743739Y-189643128D02*
X195029453Y-189643128D01*
X195029453Y-189643128D02*
X195172311Y-189714557D01*
X195815167Y-190643128D02*
X195815167Y-189643128D01*
X195815167Y-189785985D02*
X195886596Y-189714557D01*
X195886596Y-189714557D02*
X196029453Y-189643128D01*
X196029453Y-189643128D02*
X196243739Y-189643128D01*
X196243739Y-189643128D02*
X196386596Y-189714557D01*
X196386596Y-189714557D02*
X196458025Y-189857414D01*
X196458025Y-189857414D02*
X196458025Y-190643128D01*
X196458025Y-189857414D02*
X196529453Y-189714557D01*
X196529453Y-189714557D02*
X196672310Y-189643128D01*
X196672310Y-189643128D02*
X196886596Y-189643128D01*
X196886596Y-189643128D02*
X197029453Y-189714557D01*
X197029453Y-189714557D02*
X197100882Y-189857414D01*
X197100882Y-189857414D02*
X197100882Y-190643128D01*
X197458025Y-190785985D02*
X198600882Y-190785985D01*
X198958024Y-190643128D02*
X198958024Y-189643128D01*
X198958024Y-189785985D02*
X199029453Y-189714557D01*
X199029453Y-189714557D02*
X199172310Y-189643128D01*
X199172310Y-189643128D02*
X199386596Y-189643128D01*
X199386596Y-189643128D02*
X199529453Y-189714557D01*
X199529453Y-189714557D02*
X199600882Y-189857414D01*
X199600882Y-189857414D02*
X199600882Y-190643128D01*
X199600882Y-189857414D02*
X199672310Y-189714557D01*
X199672310Y-189714557D02*
X199815167Y-189643128D01*
X199815167Y-189643128D02*
X200029453Y-189643128D01*
X200029453Y-189643128D02*
X200172310Y-189714557D01*
X200172310Y-189714557D02*
X200243739Y-189857414D01*
X200243739Y-189857414D02*
X200243739Y-190643128D01*
X200958024Y-190643128D02*
X200958024Y-189143128D01*
X201100882Y-190071700D02*
X201529453Y-190643128D01*
X201529453Y-189643128D02*
X200958024Y-190214557D01*
X202029453Y-189143128D02*
X202958025Y-189143128D01*
X202958025Y-189143128D02*
X202458025Y-189714557D01*
X202458025Y-189714557D02*
X202672310Y-189714557D01*
X202672310Y-189714557D02*
X202815168Y-189785985D01*
X202815168Y-189785985D02*
X202886596Y-189857414D01*
X202886596Y-189857414D02*
X202958025Y-190000271D01*
X202958025Y-190000271D02*
X202958025Y-190357414D01*
X202958025Y-190357414D02*
X202886596Y-190500271D01*
X202886596Y-190500271D02*
X202815168Y-190571700D01*
X202815168Y-190571700D02*
X202672310Y-190643128D01*
X202672310Y-190643128D02*
X202243739Y-190643128D01*
X202243739Y-190643128D02*
X202100882Y-190571700D01*
X202100882Y-190571700D02*
X202029453Y-190500271D01*
X203243739Y-190785985D02*
X204386596Y-190785985D01*
X204743738Y-189643128D02*
X204743738Y-191143128D01*
X204743738Y-189714557D02*
X204886596Y-189643128D01*
X204886596Y-189643128D02*
X205172310Y-189643128D01*
X205172310Y-189643128D02*
X205315167Y-189714557D01*
X205315167Y-189714557D02*
X205386596Y-189785985D01*
X205386596Y-189785985D02*
X205458024Y-189928842D01*
X205458024Y-189928842D02*
X205458024Y-190357414D01*
X205458024Y-190357414D02*
X205386596Y-190500271D01*
X205386596Y-190500271D02*
X205315167Y-190571700D01*
X205315167Y-190571700D02*
X205172310Y-190643128D01*
X205172310Y-190643128D02*
X204886596Y-190643128D01*
X204886596Y-190643128D02*
X204743738Y-190571700D01*
X206100881Y-190643128D02*
X206100881Y-189643128D01*
X206100881Y-189928842D02*
X206172310Y-189785985D01*
X206172310Y-189785985D02*
X206243739Y-189714557D01*
X206243739Y-189714557D02*
X206386596Y-189643128D01*
X206386596Y-189643128D02*
X206529453Y-189643128D01*
X207243738Y-190643128D02*
X207100881Y-190571700D01*
X207100881Y-190571700D02*
X207029452Y-190500271D01*
X207029452Y-190500271D02*
X206958024Y-190357414D01*
X206958024Y-190357414D02*
X206958024Y-189928842D01*
X206958024Y-189928842D02*
X207029452Y-189785985D01*
X207029452Y-189785985D02*
X207100881Y-189714557D01*
X207100881Y-189714557D02*
X207243738Y-189643128D01*
X207243738Y-189643128D02*
X207458024Y-189643128D01*
X207458024Y-189643128D02*
X207600881Y-189714557D01*
X207600881Y-189714557D02*
X207672310Y-189785985D01*
X207672310Y-189785985D02*
X207743738Y-189928842D01*
X207743738Y-189928842D02*
X207743738Y-190357414D01*
X207743738Y-190357414D02*
X207672310Y-190500271D01*
X207672310Y-190500271D02*
X207600881Y-190571700D01*
X207600881Y-190571700D02*
X207458024Y-190643128D01*
X207458024Y-190643128D02*
X207243738Y-190643128D01*
X208172310Y-189643128D02*
X208743738Y-189643128D01*
X208386595Y-189143128D02*
X208386595Y-190428842D01*
X208386595Y-190428842D02*
X208458024Y-190571700D01*
X208458024Y-190571700D02*
X208600881Y-190643128D01*
X208600881Y-190643128D02*
X208743738Y-190643128D01*
X209815167Y-190571700D02*
X209672310Y-190643128D01*
X209672310Y-190643128D02*
X209386596Y-190643128D01*
X209386596Y-190643128D02*
X209243738Y-190571700D01*
X209243738Y-190571700D02*
X209172310Y-190428842D01*
X209172310Y-190428842D02*
X209172310Y-189857414D01*
X209172310Y-189857414D02*
X209243738Y-189714557D01*
X209243738Y-189714557D02*
X209386596Y-189643128D01*
X209386596Y-189643128D02*
X209672310Y-189643128D01*
X209672310Y-189643128D02*
X209815167Y-189714557D01*
X209815167Y-189714557D02*
X209886596Y-189857414D01*
X209886596Y-189857414D02*
X209886596Y-190000271D01*
X209886596Y-190000271D02*
X209172310Y-190143128D01*
X211172310Y-190571700D02*
X211029452Y-190643128D01*
X211029452Y-190643128D02*
X210743738Y-190643128D01*
X210743738Y-190643128D02*
X210600881Y-190571700D01*
X210600881Y-190571700D02*
X210529452Y-190500271D01*
X210529452Y-190500271D02*
X210458024Y-190357414D01*
X210458024Y-190357414D02*
X210458024Y-189928842D01*
X210458024Y-189928842D02*
X210529452Y-189785985D01*
X210529452Y-189785985D02*
X210600881Y-189714557D01*
X210600881Y-189714557D02*
X210743738Y-189643128D01*
X210743738Y-189643128D02*
X211029452Y-189643128D01*
X211029452Y-189643128D02*
X211172310Y-189714557D01*
X211600881Y-189643128D02*
X212172309Y-189643128D01*
X211815166Y-189143128D02*
X211815166Y-190428842D01*
X211815166Y-190428842D02*
X211886595Y-190571700D01*
X211886595Y-190571700D02*
X212029452Y-190643128D01*
X212029452Y-190643128D02*
X212172309Y-190643128D01*
X212672309Y-190643128D02*
X212672309Y-189643128D01*
X212672309Y-189143128D02*
X212600881Y-189214557D01*
X212600881Y-189214557D02*
X212672309Y-189285985D01*
X212672309Y-189285985D02*
X212743738Y-189214557D01*
X212743738Y-189214557D02*
X212672309Y-189143128D01*
X212672309Y-189143128D02*
X212672309Y-189285985D01*
X213600881Y-190643128D02*
X213458024Y-190571700D01*
X213458024Y-190571700D02*
X213386595Y-190500271D01*
X213386595Y-190500271D02*
X213315167Y-190357414D01*
X213315167Y-190357414D02*
X213315167Y-189928842D01*
X213315167Y-189928842D02*
X213386595Y-189785985D01*
X213386595Y-189785985D02*
X213458024Y-189714557D01*
X213458024Y-189714557D02*
X213600881Y-189643128D01*
X213600881Y-189643128D02*
X213815167Y-189643128D01*
X213815167Y-189643128D02*
X213958024Y-189714557D01*
X213958024Y-189714557D02*
X214029453Y-189785985D01*
X214029453Y-189785985D02*
X214100881Y-189928842D01*
X214100881Y-189928842D02*
X214100881Y-190357414D01*
X214100881Y-190357414D02*
X214029453Y-190500271D01*
X214029453Y-190500271D02*
X213958024Y-190571700D01*
X213958024Y-190571700D02*
X213815167Y-190643128D01*
X213815167Y-190643128D02*
X213600881Y-190643128D01*
X214743738Y-189643128D02*
X214743738Y-190643128D01*
X214743738Y-189785985D02*
X214815167Y-189714557D01*
X214815167Y-189714557D02*
X214958024Y-189643128D01*
X214958024Y-189643128D02*
X215172310Y-189643128D01*
X215172310Y-189643128D02*
X215315167Y-189714557D01*
X215315167Y-189714557D02*
X215386596Y-189857414D01*
X215386596Y-189857414D02*
X215386596Y-190643128D01*
X216100881Y-190500271D02*
X216172310Y-190571700D01*
X216172310Y-190571700D02*
X216100881Y-190643128D01*
X216100881Y-190643128D02*
X216029453Y-190571700D01*
X216029453Y-190571700D02*
X216100881Y-190500271D01*
X216100881Y-190500271D02*
X216100881Y-190643128D01*
X216815167Y-190643128D02*
X216815167Y-189143128D01*
X216958025Y-190071700D02*
X217386596Y-190643128D01*
X217386596Y-189643128D02*
X216815167Y-190214557D01*
X218029453Y-190643128D02*
X218029453Y-189643128D01*
X218029453Y-189143128D02*
X217958025Y-189214557D01*
X217958025Y-189214557D02*
X218029453Y-189285985D01*
X218029453Y-189285985D02*
X218100882Y-189214557D01*
X218100882Y-189214557D02*
X218029453Y-189143128D01*
X218029453Y-189143128D02*
X218029453Y-189285985D01*
X219386597Y-190571700D02*
X219243739Y-190643128D01*
X219243739Y-190643128D02*
X218958025Y-190643128D01*
X218958025Y-190643128D02*
X218815168Y-190571700D01*
X218815168Y-190571700D02*
X218743739Y-190500271D01*
X218743739Y-190500271D02*
X218672311Y-190357414D01*
X218672311Y-190357414D02*
X218672311Y-189928842D01*
X218672311Y-189928842D02*
X218743739Y-189785985D01*
X218743739Y-189785985D02*
X218815168Y-189714557D01*
X218815168Y-189714557D02*
X218958025Y-189643128D01*
X218958025Y-189643128D02*
X219243739Y-189643128D01*
X219243739Y-189643128D02*
X219386597Y-189714557D01*
X220672311Y-190643128D02*
X220672311Y-189857414D01*
X220672311Y-189857414D02*
X220600882Y-189714557D01*
X220600882Y-189714557D02*
X220458025Y-189643128D01*
X220458025Y-189643128D02*
X220172311Y-189643128D01*
X220172311Y-189643128D02*
X220029453Y-189714557D01*
X220672311Y-190571700D02*
X220529453Y-190643128D01*
X220529453Y-190643128D02*
X220172311Y-190643128D01*
X220172311Y-190643128D02*
X220029453Y-190571700D01*
X220029453Y-190571700D02*
X219958025Y-190428842D01*
X219958025Y-190428842D02*
X219958025Y-190285985D01*
X219958025Y-190285985D02*
X220029453Y-190143128D01*
X220029453Y-190143128D02*
X220172311Y-190071700D01*
X220172311Y-190071700D02*
X220529453Y-190071700D01*
X220529453Y-190071700D02*
X220672311Y-190000271D01*
X222029454Y-190643128D02*
X222029454Y-189143128D01*
X222029454Y-190571700D02*
X221886596Y-190643128D01*
X221886596Y-190643128D02*
X221600882Y-190643128D01*
X221600882Y-190643128D02*
X221458025Y-190571700D01*
X221458025Y-190571700D02*
X221386596Y-190500271D01*
X221386596Y-190500271D02*
X221315168Y-190357414D01*
X221315168Y-190357414D02*
X221315168Y-189928842D01*
X221315168Y-189928842D02*
X221386596Y-189785985D01*
X221386596Y-189785985D02*
X221458025Y-189714557D01*
X221458025Y-189714557D02*
X221600882Y-189643128D01*
X221600882Y-189643128D02*
X221886596Y-189643128D01*
X221886596Y-189643128D02*
X222029454Y-189714557D01*
X222386597Y-190785985D02*
X223529454Y-190785985D01*
X223886596Y-189643128D02*
X223886596Y-191143128D01*
X223886596Y-189714557D02*
X224029454Y-189643128D01*
X224029454Y-189643128D02*
X224315168Y-189643128D01*
X224315168Y-189643128D02*
X224458025Y-189714557D01*
X224458025Y-189714557D02*
X224529454Y-189785985D01*
X224529454Y-189785985D02*
X224600882Y-189928842D01*
X224600882Y-189928842D02*
X224600882Y-190357414D01*
X224600882Y-190357414D02*
X224529454Y-190500271D01*
X224529454Y-190500271D02*
X224458025Y-190571700D01*
X224458025Y-190571700D02*
X224315168Y-190643128D01*
X224315168Y-190643128D02*
X224029454Y-190643128D01*
X224029454Y-190643128D02*
X223886596Y-190571700D01*
X225886597Y-190571700D02*
X225743739Y-190643128D01*
X225743739Y-190643128D02*
X225458025Y-190643128D01*
X225458025Y-190643128D02*
X225315168Y-190571700D01*
X225315168Y-190571700D02*
X225243739Y-190500271D01*
X225243739Y-190500271D02*
X225172311Y-190357414D01*
X225172311Y-190357414D02*
X225172311Y-189928842D01*
X225172311Y-189928842D02*
X225243739Y-189785985D01*
X225243739Y-189785985D02*
X225315168Y-189714557D01*
X225315168Y-189714557D02*
X225458025Y-189643128D01*
X225458025Y-189643128D02*
X225743739Y-189643128D01*
X225743739Y-189643128D02*
X225886597Y-189714557D01*
X226529453Y-190643128D02*
X226529453Y-189143128D01*
X226529453Y-189714557D02*
X226672311Y-189643128D01*
X226672311Y-189643128D02*
X226958025Y-189643128D01*
X226958025Y-189643128D02*
X227100882Y-189714557D01*
X227100882Y-189714557D02*
X227172311Y-189785985D01*
X227172311Y-189785985D02*
X227243739Y-189928842D01*
X227243739Y-189928842D02*
X227243739Y-190357414D01*
X227243739Y-190357414D02*
X227172311Y-190500271D01*
X227172311Y-190500271D02*
X227100882Y-190571700D01*
X227100882Y-190571700D02*
X226958025Y-190643128D01*
X226958025Y-190643128D02*
X226672311Y-190643128D01*
X226672311Y-190643128D02*
X226529453Y-190571700D01*
X177002200Y-181507200D02*
X285002200Y-181507200D01*
X178386598Y-187871700D02*
X178600884Y-187943128D01*
X178600884Y-187943128D02*
X178958026Y-187943128D01*
X178958026Y-187943128D02*
X179100884Y-187871700D01*
X179100884Y-187871700D02*
X179172312Y-187800271D01*
X179172312Y-187800271D02*
X179243741Y-187657414D01*
X179243741Y-187657414D02*
X179243741Y-187514557D01*
X179243741Y-187514557D02*
X179172312Y-187371700D01*
X179172312Y-187371700D02*
X179100884Y-187300271D01*
X179100884Y-187300271D02*
X178958026Y-187228842D01*
X178958026Y-187228842D02*
X178672312Y-187157414D01*
X178672312Y-187157414D02*
X178529455Y-187085985D01*
X178529455Y-187085985D02*
X178458026Y-187014557D01*
X178458026Y-187014557D02*
X178386598Y-186871700D01*
X178386598Y-186871700D02*
X178386598Y-186728842D01*
X178386598Y-186728842D02*
X178458026Y-186585985D01*
X178458026Y-186585985D02*
X178529455Y-186514557D01*
X178529455Y-186514557D02*
X178672312Y-186443128D01*
X178672312Y-186443128D02*
X179029455Y-186443128D01*
X179029455Y-186443128D02*
X179243741Y-186514557D01*
X179886597Y-187943128D02*
X179886597Y-186443128D01*
X180529455Y-187943128D02*
X180529455Y-187157414D01*
X180529455Y-187157414D02*
X180458026Y-187014557D01*
X180458026Y-187014557D02*
X180315169Y-186943128D01*
X180315169Y-186943128D02*
X180100883Y-186943128D01*
X180100883Y-186943128D02*
X179958026Y-187014557D01*
X179958026Y-187014557D02*
X179886597Y-187085985D01*
X181815169Y-187871700D02*
X181672312Y-187943128D01*
X181672312Y-187943128D02*
X181386598Y-187943128D01*
X181386598Y-187943128D02*
X181243740Y-187871700D01*
X181243740Y-187871700D02*
X181172312Y-187728842D01*
X181172312Y-187728842D02*
X181172312Y-187157414D01*
X181172312Y-187157414D02*
X181243740Y-187014557D01*
X181243740Y-187014557D02*
X181386598Y-186943128D01*
X181386598Y-186943128D02*
X181672312Y-186943128D01*
X181672312Y-186943128D02*
X181815169Y-187014557D01*
X181815169Y-187014557D02*
X181886598Y-187157414D01*
X181886598Y-187157414D02*
X181886598Y-187300271D01*
X181886598Y-187300271D02*
X181172312Y-187443128D01*
X183100883Y-187871700D02*
X182958026Y-187943128D01*
X182958026Y-187943128D02*
X182672312Y-187943128D01*
X182672312Y-187943128D02*
X182529454Y-187871700D01*
X182529454Y-187871700D02*
X182458026Y-187728842D01*
X182458026Y-187728842D02*
X182458026Y-187157414D01*
X182458026Y-187157414D02*
X182529454Y-187014557D01*
X182529454Y-187014557D02*
X182672312Y-186943128D01*
X182672312Y-186943128D02*
X182958026Y-186943128D01*
X182958026Y-186943128D02*
X183100883Y-187014557D01*
X183100883Y-187014557D02*
X183172312Y-187157414D01*
X183172312Y-187157414D02*
X183172312Y-187300271D01*
X183172312Y-187300271D02*
X182458026Y-187443128D01*
X183600883Y-186943128D02*
X184172311Y-186943128D01*
X183815168Y-186443128D02*
X183815168Y-187728842D01*
X183815168Y-187728842D02*
X183886597Y-187871700D01*
X183886597Y-187871700D02*
X184029454Y-187943128D01*
X184029454Y-187943128D02*
X184172311Y-187943128D01*
X184672311Y-187800271D02*
X184743740Y-187871700D01*
X184743740Y-187871700D02*
X184672311Y-187943128D01*
X184672311Y-187943128D02*
X184600883Y-187871700D01*
X184600883Y-187871700D02*
X184672311Y-187800271D01*
X184672311Y-187800271D02*
X184672311Y-187943128D01*
X184672311Y-187014557D02*
X184743740Y-187085985D01*
X184743740Y-187085985D02*
X184672311Y-187157414D01*
X184672311Y-187157414D02*
X184600883Y-187085985D01*
X184600883Y-187085985D02*
X184672311Y-187014557D01*
X184672311Y-187014557D02*
X184672311Y-187157414D01*
X197002200Y-191507200D02*
X197002200Y-194507200D01*
X261002200Y-191507200D02*
X261002200Y-198007200D01*
X177013200Y-181505000D02*
X177013200Y-198005000D01*
D13*
X126436013Y-92359494D02*
X126436013Y-92359494D01*
G75*
G02*
X129436013Y-89359494I2999987J-6D01*
G01*
X171436012Y-89359494D01*
G75*
G02*
X174436012Y-92359494I-12J-3000006D01*
G01*
X174436012Y-125359494D01*
G75*
G02*
X171436012Y-128359494I-3000012J-6D01*
G01*
X129436013Y-128359494D01*
G75*
G02*
X126436013Y-125359494I-13J2999994D01*
G01*
X126436013Y-92359494D01*
M02*
